REM DIRINDEX 1\2\6,1\2\7,1\2\8,1\2\9,1\3\10,1\3\11,1\4\12,1\4\13,1\4\14,1\5\15,1\5\16,1\5\17
REM DIRNAME folder01,folder02,folder03,folder04,folder05,folder06,folder07,folder08,folder09,folder10,folder11,folder12,folder13,folder14,folder15,folder16,folder17
TITLE ""
FILE "1900_3_067 sec12_1101_1115.mp3" MP3
  TRACK 01 AUDIO
    TITLE "0:"
    INDEX 01 00:00:00
  TRACK 02 AUDIO
    TITLE "15:cjc020_8179"
    INDEX 01 00:00:17
  TRACK 03 AUDIO
    TITLE "0:"
    INDEX 01 00:01:66
  TRACK 04 AUDIO
    TITLE "17:cjc020_8180"
    INDEX 01 00:02:71
  TRACK 05 AUDIO
    TITLE "0:"
    INDEX 01 00:04:05
  TRACK 06 AUDIO
    TITLE "16:cjc020_8181"
    INDEX 01 00:04:11
  TRACK 07 AUDIO
    TITLE "0:"
    INDEX 01 00:05:18
  TRACK 08 AUDIO
    TITLE "17:cjc020_8182"
    INDEX 01 00:06:04
  TRACK 09 AUDIO
    TITLE "0:"
    INDEX 01 00:07:13
  TRACK 10 AUDIO
    TITLE "16:cjc020_8183"
    INDEX 01 00:07:19
  TRACK 11 AUDIO
    TITLE "0:"
    INDEX 01 00:08:46
  TRACK 12 AUDIO
    TITLE "17:cjc020_8184"
    INDEX 01 00:09:30
  TRACK 13 AUDIO
    TITLE "0:"
    INDEX 01 00:12:14
  TRACK 14 AUDIO
    TITLE "16:cjc020_8185"
    INDEX 01 00:12:20
  TRACK 15 AUDIO
    TITLE "0:"
    INDEX 01 00:13:22
  TRACK 16 AUDIO
    TITLE "17:cjc020_8186"
    INDEX 01 00:14:06
  TRACK 17 AUDIO
    TITLE "0:"
    INDEX 01 00:16:48
  TRACK 18 AUDIO
    TITLE "16:cjc020_8187"
    INDEX 01 00:16:57
  TRACK 19 AUDIO
    TITLE "0:"
    INDEX 01 00:18:19
  TRACK 20 AUDIO
    TITLE "17:cjc020_8188"
    INDEX 01 00:19:03
  TRACK 21 AUDIO
    TITLE "0:"
    INDEX 01 00:20:12
  TRACK 22 AUDIO
    TITLE "16:cjc020_8189"
    INDEX 01 00:20:16
  TRACK 23 AUDIO
    TITLE "0:"
    INDEX 01 00:21:39
  TRACK 24 AUDIO
    TITLE "17:cjc020_8190"
    INDEX 01 00:22:27
  TRACK 25 AUDIO
    TITLE "0:"
    INDEX 01 00:23:57
  TRACK 26 AUDIO
    TITLE "16:cjc020_8191"
    INDEX 01 00:23:69
  TRACK 27 AUDIO
    TITLE "0:"
    INDEX 01 00:25:09
  TRACK 28 AUDIO
    TITLE "17:cjc020_8192"
    INDEX 01 00:25:66
  TRACK 29 AUDIO
    TITLE "0:"
    INDEX 01 00:27:10
  TRACK 30 AUDIO
    TITLE "16:cjc020_8193"
    INDEX 01 00:27:14
  TRACK 31 AUDIO
    TITLE "0:"
    INDEX 01 00:28:15
  TRACK 32 AUDIO
    TITLE "17:cjc020_8194"
    INDEX 01 00:28:74
  TRACK 33 AUDIO
    TITLE "0:"
    INDEX 01 00:30:42
  TRACK 34 AUDIO
    TITLE "16:cjc020_8195"
    INDEX 01 00:30:44
  TRACK 35 AUDIO
    TITLE "0:"
    INDEX 01 00:31:57
  TRACK 36 AUDIO
    TITLE "17:cjc020_8196"
    INDEX 01 00:32:43
  TRACK 37 AUDIO
    TITLE "0:"
    INDEX 01 00:33:71
  TRACK 38 AUDIO
    TITLE "16:cjc020_8197"
    INDEX 01 00:34:02
  TRACK 39 AUDIO
    TITLE "0:"
    INDEX 01 00:35:27
  TRACK 40 AUDIO
    TITLE "17:cjc020_8198"
    INDEX 01 00:36:13
  TRACK 41 AUDIO
    TITLE "0:"
    INDEX 01 00:37:14
  TRACK 42 AUDIO
    TITLE "16:cjc020_8199"
    INDEX 01 00:37:18
  TRACK 43 AUDIO
    TITLE "0:"
    INDEX 01 00:38:26
  TRACK 44 AUDIO
    TITLE "17:cjc020_8200"
    INDEX 01 00:39:07
  TRACK 45 AUDIO
    TITLE "0:"
    INDEX 01 00:40:38
  TRACK 46 AUDIO
    TITLE "16:cjc020_8201"
    INDEX 01 00:40:44
  TRACK 47 AUDIO
    TITLE "0:"
    INDEX 01 00:41:69
  TRACK 48 AUDIO
    TITLE "17:cjc020_8202"
    INDEX 01 00:42:53
  TRACK 49 AUDIO
    TITLE "0:"
    INDEX 01 00:43:56
  TRACK 50 AUDIO
    TITLE "16:cjc020_8203"
    INDEX 01 00:43:60
  TRACK 51 AUDIO
    TITLE "0:"
    INDEX 01 00:45:04
  TRACK 52 AUDIO
    TITLE "17:cjc020_8204"
    INDEX 01 00:45:61
  TRACK 53 AUDIO
    TITLE "0:"
    INDEX 01 00:46:60
  TRACK 54 AUDIO
    TITLE "16:cjc020_8205"
    INDEX 01 00:46:70
  TRACK 55 AUDIO
    TITLE "0:"
    INDEX 01 00:47:72
  TRACK 56 AUDIO
    TITLE "17:cjc020_8206"
    INDEX 01 00:48:57
  TRACK 57 AUDIO
    TITLE "0:"
    INDEX 01 00:49:55
  TRACK 58 AUDIO
    TITLE "16:cjc020_8207"
    INDEX 01 00:49:59
  TRACK 59 AUDIO
    TITLE "0:"
    INDEX 01 00:50:72
  TRACK 60 AUDIO
    TITLE "17:cjc020_8208"
    INDEX 01 00:51:60
  TRACK 61 AUDIO
    TITLE "0:"
    INDEX 01 00:53:62
  TRACK 62 AUDIO
    TITLE "16:cjc020_8209"
    INDEX 01 00:53:66
  TRACK 63 AUDIO
    TITLE "0:"
    INDEX 01 00:55:08
